<?xml version="1.0" encoding="utf-8"?>
<!-- Generator: Adobe Illustrator 18.1.0, SVG Export Plug-In . SVG Version: 6.00 Build 0)  -->
<!DOCTYPE svg PUBLIC "-//W3C//DTD SVG 1.1//EN" "http://www.w3.org/Graphics/SVG/1.1/DTD/svg11.dtd">
<svg version="1.1" id="Layer_1" xmlns="http://www.w3.org/2000/svg" xmlns:xlink="http://www.w3.org/1999/xlink" x="0px" y="0px"
	 width="55px" height="30px" viewBox="0 0 55 30" enable-background="new 0 0 55 30" xml:space="preserve">
<g>
	<g>
		<path fill="#3B8BCA" d="M3.8,28.7c9.8-6.3,20.8-1.7,26.4,1.3C22.5,27,11.3,26.3,3.8,28.7z"/>
		<path fill="#3B8BCA" d="M20.9,0c4.7,0,8.7,2.8,10.5,6.7h-3.6c-1.6-2-4.1-3.3-6.9-3.3c-2.8,0-5.2,1.2-6.8,3.2
			c0.1-0.1,0.2-0.1,0.3-0.2c3.8-2.7,8.9,0.3,8.9,0.3s-4.9-1.4-8.1,0.9c-3.3,2.3-2.8,6.9-2.8,6.9s0-0.1-0.1-0.2c0,0.1,0,0.1,0,0.2
			c-0.8-0.6-1.7-1-2.8-1c-0.1-0.7-0.2-1.4-0.2-2.1C9.4,5.1,14.5,0,20.9,0L20.9,0z M6.1,26.1v-1c3-2.3,8.7-5.2,15.4-3.1
			c10.3,3.2,16.8,7.6,24.7,5.6s8.6-6.3,8.6-6.3s-1.4,6.1-9.2,7.5c-7.8,1.3-15-0.2-24.2-3.6C15.4,22.9,9.4,24.7,6.1,26.1L6.1,26.1z
			 M6.1,24.1c0.6-0.4,1.1-0.8,1.7-1c-0.3-0.2-0.5-0.3-0.7-0.6c-0.4-0.4-0.7-0.9-1-1.3v2.1l0.1,0c0.1,0.1,0.2,0.2,0.3,0.3
			c-0.1-0.1-0.3-0.1-0.4-0.2V24.1L6.1,24.1z M6.1,14.2v-3.6c0.8-0.3,1.6-0.4,2.4-0.4c0,0.4-0.1,0.8-0.1,1.3c0,0.7,0.1,1.4,0.2,2.1
			C7.7,13.5,6.9,13.8,6.1,14.2z M6.1,10.6v3.6c-1.6,0.9-2.7,2.6-2.7,4.6c0,2,1.1,3.7,2.7,4.6v0.6c-0.6,0.4-1.3,0.9-1.8,1.3
			c-2.3-1.5-3.8-4.1-3.8-7C0.5,14.8,2.8,11.7,6.1,10.6L6.1,10.6z M6.1,21.2c-1-2-0.7-4.3-0.7-4.3s-1.7,4,0.7,6.4V21.2L6.1,21.2z
			 M6.1,25.1c-1.6,1.2-2.5,2.2-2.5,2.2c0,0,0.9-0.5,2.5-1.2V25.1z"/>
		<path fill="#3B8BCA" d="M32,23.5c0,0,4.9,2.5,9.5,2.1c4.6-0.4,6-2,6-2s-1.7,3.1-6.1,3.3C36.9,27.1,32,23.6,32,23.5z"/>
		<rect x="28.2" y="7.7" fill="#3B8BCA" width="4.1" height="4.1"/>
		<rect x="44.6" y="19.1" fill="#3B8BCA" width="3.2" height="3.2"/>
		<rect x="33.2" y="3.9" fill="#3B8BCA" width="5.5" height="5.5"/>
		<rect x="49.1" y="13.4" fill="#3B8BCA" width="5.5" height="5.5"/>
		<rect x="39.2" y="9.8" fill="#3B8BCA" width="3" height="3"/>
		<rect x="41.2" y="15.9" fill="#3B8BCA" width="3" height="3"/>
		<rect x="34.8" y="16.1" fill="#3B8BCA" width="3.1" height="3"/>
		<rect x="45.5" y="9.9" fill="#3B8BCA" width="3" height="3"/>
	</g>
</g>
</svg>
