<svg xmlns="http://www.w3.org/2000/svg" width="55" height="30" viewBox="0 0 55 30"><g fill="#3B8BCA"><path d="M3.8 28.7c9.8-6.3 20.8-1.7 26.4 1.3-7.7-3-18.9-3.7-26.4-1.3zM20.9 0c4.7 0 8.7 2.8 10.5 6.7h-3.6c-1.6-2-4.1-3.3-6.9-3.3-2.8 0-5.2 1.2-6.8 3.2.1-.1.2-.1.3-.2 3.8-2.7 8.9.3 8.9.3s-4.9-1.4-8.1.9c-3.3 2.3-2.8 6.9-2.8 6.9s0-.1-.1-.2v.2c-.8-.6-1.7-1-2.8-1-.1-.7-.2-1.4-.2-2.1C9.4 5.1 14.5 0 20.9 0zM6.1 26.1v-1c3-2.3 8.7-5.2 15.4-3.1 10.3 3.2 16.8 7.6 24.7 5.6s8.6-6.3 8.6-6.3-1.4 6.1-9.2 7.5c-7.8 1.3-15-.2-24.2-3.6-6-2.3-12-.5-15.3.9zm0-2c.6-.4 1.1-.8 1.7-1-.3-.2-.5-.3-.7-.6-.4-.4-.7-.9-1-1.3v2.1h.1l.3.3c-.1-.1-.3-.1-.4-.2v.7zm0-9.9v-3.6c.8-.3 1.6-.4 2.4-.4 0 .4-.1.8-.1 1.3 0 .7.1 1.4.2 2.1-.9-.1-1.7.2-2.5.6zm0-3.6v3.6c-1.6.9-2.7 2.6-2.7 4.6 0 2 1.1 3.7 2.7 4.6v.6c-.6.4-1.3.9-1.8 1.3C2 23.8.5 21.2.5 18.3c0-3.5 2.3-6.6 5.6-7.7zm0 10.6c-1-2-.7-4.3-.7-4.3s-1.7 4 .7 6.4v-2.1zm0 3.9c-1.6 1.2-2.5 2.2-2.5 2.2s.9-.5 2.5-1.2v-1zM32 23.5s4.9 2.5 9.5 2.1c4.6-.4 6-2 6-2s-1.7 3.1-6.1 3.3c-4.5.2-9.4-3.3-9.4-3.4zM28.2 7.7h4.1v4.1h-4.1zM44.6 19.1h3.2v3.2h-3.2zM33.2 3.9h5.5v5.5h-5.5zM49.1 13.4h5.5v5.5h-5.5zM39.2 9.8h3v3h-3zM41.2 15.9h3v3h-3zM34.8 16.1h3.1v3h-3.1zM45.5 9.9h3v3h-3z"/></g></svg>